<?xml version="1.0" standalone="no"?>
<!DOCTYPE svg PUBLIC "-//W3C//DTD SVG 20010904//EN"
 "http://www.w3.org/TR/2001/REC-SVG-20010904/DTD/svg10.dtd">
<svg version="1.0" xmlns="http://www.w3.org/2000/svg"
 width="1247.000000pt" height="1247.000000pt" viewBox="0 0 1247.000000 1247.000000"
 preserveAspectRatio="xMidYMid meet">
<metadata>
Created by potrace 1.11, written by Peter Selinger 2001-2013
</metadata>
<g transform="translate(0.000000,1247.000000) scale(0.100000,-0.100000)"
fill="#000000" stroke="none">
<path d="M6909 12066 c-2 -2 -36 -7 -75 -10 -39 -4 -80 -8 -90 -10 -11 -2 -46
-7 -79 -10 -33 -4 -71 -9 -85 -11 -14 -2 -47 -6 -75 -10 -27 -3 -61 -8 -75
-10 -31 -5 -172 -25 -220 -31 -19 -3 -60 -9 -90 -14 -30 -5 -75 -12 -100 -15
-25 -3 -70 -10 -100 -15 -30 -5 -73 -12 -95 -15 -23 -3 -50 -7 -60 -9 -11 -2
-40 -7 -65 -10 -25 -3 -54 -8 -65 -10 -21 -4 -74 -12 -139 -22 -21 -3 -48 -8
-60 -10 -11 -2 -41 -7 -66 -10 -25 -3 -54 -8 -65 -10 -10 -2 -35 -6 -55 -9
-20 -3 -47 -7 -60 -10 -13 -3 -42 -7 -65 -10 -52 -8 -87 -13 -157 -25 -32 -6
-84 -14 -115 -20 -32 -5 -71 -12 -88 -14 -16 -3 -73 -12 -125 -21 -112 -20
-121 -21 -180 -29 -25 -4 -85 -13 -135 -22 -49 -9 -103 -18 -120 -21 -28 -4
-114 -18 -160 -27 -77 -14 -99 -17 -128 -21 -17 -3 -43 -7 -57 -10 -21 -4
-214 -37 -350 -60 -19 -3 -46 -7 -60 -10 -14 -3 -41 -7 -60 -10 -64 -11 -106
-24 -176 -59 -132 -66 -236 -175 -291 -306 -22 -53 -27 -83 -29 -160 -3 -86
11 -183 32 -235 8 -20 128 -224 423 -718 91 -153 174 -292 184 -310 22 -38 74
-94 102 -110 11 -6 45 -12 75 -13 60 -3 84 -7 139 -25 35 -11 49 -17 171 -71
225 -101 377 -328 385 -578 3 -82 -3 -128 -28 -227 -2 -7 -6 -16 -10 -19 -4
-4 -7 -15 -7 -24 0 -9 -22 -52 -50 -96 -85 -139 -215 -242 -370 -294 -92 -31
-259 -36 -355 -10 -226 59 -391 209 -470 426 -51 140 -52 273 -5 454 18 69 32
144 32 167 -2 63 -38 143 -123 273 -303 459 -530 812 -583 902 -76 130 -194
188 -356 174 -119 -10 -191 -43 -259 -115 -68 -72 -370 -492 -556 -771 -39
-58 -73 -107 -76 -110 -13 -11 -783 -1172 -1051 -1583 -50 -77 -92 -153 -98
-178 -24 -101 -37 -228 -38 -357 0 -242 37 -402 112 -482 23 -25 55 -63 71
-85 83 -113 198 -177 315 -177 44 1 215 55 400 127 66 26 245 88 389 135 106
34 154 55 184 80 41 35 76 99 83 153 2 18 6 55 9 82 16 131 113 351 190 431 5
6 26 28 46 50 117 130 293 227 488 269 66 14 271 15 336 1 321 -69 580 -296
683 -601 30 -90 43 -163 46 -255 10 -349 -182 -673 -490 -829 -83 -41 -158
-70 -209 -78 -16 -3 -50 -8 -75 -13 -164 -30 -390 12 -564 105 -60 33 -197 79
-266 89 -19 3 -48 8 -65 11 -37 6 -247 7 -295 1 -118 -15 -256 -51 -380 -99
-98 -38 -110 -45 -180 -117 -54 -55 -88 -101 -121 -166 -44 -84 -102 -228 -95
-235 2 -2 7 -38 10 -79 8 -82 27 -173 51 -241 9 -24 32 -107 51 -183 20 -77
42 -160 51 -185 59 -177 158 -307 308 -407 70 -46 85 -49 225 -48 125 1 156
11 315 106 61 35 169 94 241 129 156 76 160 81 204 252 29 117 60 190 111 262
87 125 216 215 374 261 81 24 247 24 335 0 201 -55 371 -203 447 -388 63 -155
68 -335 14 -478 -103 -272 -349 -444 -631 -442 -47 1 -96 3 -109 6 -67 15
-142 41 -202 71 -144 73 -234 49 -459 -124 -170 -131 -264 -220 -289 -274 -39
-83 -31 -243 15 -304 29 -38 36 -44 395 -333 325 -262 305 -236 324 -415 3
-33 8 -78 10 -100 3 -22 7 -71 10 -110 3 -38 8 -89 10 -113 10 -90 14 -129 20
-197 3 -38 8 -88 10 -110 2 -22 7 -71 10 -110 3 -38 8 -85 11 -104 2 -18 6
-63 9 -100 3 -36 7 -84 10 -106 2 -22 7 -69 10 -105 3 -36 8 -83 10 -105 3
-22 7 -69 10 -105 3 -36 7 -85 10 -110 5 -44 9 -88 20 -202 3 -32 7 -84 10
-115 3 -32 8 -80 11 -108 12 -127 14 -154 19 -205 4 -55 12 -130 20 -205 2
-22 7 -71 10 -110 9 -98 20 -136 55 -184 57 -79 181 -132 268 -116 109 20 249
122 295 214 21 43 23 55 15 107 -22 149 -13 547 17 719 62 360 172 669 344
960 130 221 265 392 456 575 372 358 855 597 1355 669 105 16 115 19 118 40 6
42 -85 293 -274 751 -23 56 -52 107 -71 127 -40 39 -132 69 -220 72 -34 1 -70
4 -80 5 -10 2 -44 7 -76 10 -33 4 -70 11 -83 16 -13 5 -24 7 -24 5 0 -8 -173
56 -230 85 -220 113 -402 300 -509 524 -238 497 -66 1105 399 1410 125 82 277
146 380 162 19 3 49 9 65 13 17 4 86 8 155 9 109 1 166 -5 295 -32 50 -11 171
-58 237 -93 124 -65 278 -190 350 -284 12 -17 32 -43 44 -57 65 -85 146 -262
177 -392 50 -204 36 -451 -36 -641 -14 -35 -60 -134 -103 -219 -85 -167 -92
-183 -124 -275 -31 -89 -49 -184 -46 -240 2 -32 19 -87 49 -155 71 -164 168
-420 253 -668 l39 -113 60 -33 c37 -21 99 -42 160 -56 335 -74 662 -224 940
-428 50 -37 96 -72 103 -79 93 -88 149 -113 292 -127 46 -4 130 16 177 44 156
91 433 338 567 503 159 197 189 276 181 472 -2 66 -7 134 -9 150 -3 17 -10 71
-16 120 -12 110 -18 159 -30 250 -5 39 -12 88 -14 110 -3 22 -13 94 -21 160
-19 144 -22 164 -29 235 -4 30 -8 64 -10 75 -2 11 -8 49 -12 85 -4 36 -8 67
-9 70 -1 3 -5 37 -10 75 -5 39 -9 72 -10 75 -1 3 -5 37 -9 75 -5 39 -10 79
-12 90 -2 11 -9 58 -14 105 -6 47 -13 97 -15 111 -3 14 -7 43 -10 65 -2 21 -7
59 -11 84 -19 133 -164 312 -334 412 -170 100 -287 222 -368 383 -31 61 -69
167 -77 217 -24 134 -25 220 -5 338 49 294 243 542 522 669 177 81 396 98 589
48 260 -68 477 -248 587 -488 60 -129 84 -228 86 -359 5 -253 -83 -470 -273
-669 -80 -83 -131 -156 -167 -236 -22 -52 -24 -65 -20 -178 3 -67 7 -132 10
-144 2 -12 7 -56 11 -98 6 -74 9 -104 20 -185 8 -62 14 -114 20 -170 3 -30 8
-62 10 -70 2 -8 6 -40 9 -71 10 -96 66 -498 102 -721 10 -68 13 -86 19 -133 3
-27 8 -57 10 -65 2 -8 6 -37 10 -65 38 -308 249 -558 526 -623 38 -9 69 -22
69 -28 0 -9 163 -73 200 -79 4 -1 64 -18 200 -59 25 -7 99 -26 165 -41 66 -15
151 -35 189 -45 187 -49 324 28 422 235 59 124 110 324 86 339 -6 4 -6 21 0
48 31 138 -4 284 -94 394 -27 34 -383 345 -480 420 -37 29 -86 35 -426 59
-230 17 -438 158 -546 373 -96 191 -83 447 32 637 45 74 151 179 225 223 173
103 396 122 583 49 183 -72 324 -221 392 -416 23 -66 26 -94 28 -213 3 -215
-21 -181 423 -598 67 -63 149 -141 182 -172 63 -60 103 -78 219 -98 187 -33
396 11 645 137 76 38 243 150 288 191 l27 26 0 877 0 877 -37 5 c-46 6 -194 1
-243 -8 -247 -45 -540 -153 -702 -257 -188 -122 -328 -167 -526 -169 -343 -3
-655 193 -811 507 -124 250 -115 583 21 822 143 252 369 411 653 458 54 9 218
11 254 3 20 -4 50 -10 66 -12 102 -16 266 -91 360 -165 123 -97 211 -211 289
-372 75 -158 169 -230 346 -266 66 -13 271 -16 300 -4 l30 12 0 836 0 836 -23
35 c-84 128 -109 162 -168 231 -110 128 -215 223 -329 301 -36 24 -67 46 -70
49 -24 24 -223 118 -319 150 l-93 31 -87 -25 c-49 -14 -166 -63 -262 -109
-171 -83 -264 -127 -404 -192 -82 -38 -171 -80 -314 -146 -57 -27 -105 -49
-107 -49 -2 0 -56 -25 -121 -56 -65 -31 -156 -73 -203 -94 -47 -21 -119 -53
-160 -73 -41 -19 -109 -51 -151 -70 -47 -22 -84 -46 -96 -64 -24 -34 -73 -145
-73 -164 0 -8 -11 -44 -24 -80 -76 -210 -271 -380 -487 -425 -404 -84 -798
227 -802 635 -1 191 58 345 183 472 89 90 165 138 278 175 147 48 234 46 457
-10 102 -26 233 -34 360 -22 91 8 134 17 141 27 3 5 12 9 20 9 8 0 34 9 57 19
23 11 85 38 137 61 225 98 463 240 566 337 73 69 134 162 150 229 7 31 12 95
11 143 -2 79 -5 92 -37 146 -34 59 -155 186 -299 315 -39 36 -92 83 -115 105
-24 22 -63 56 -86 74 -23 19 -48 40 -54 46 -6 6 -56 45 -111 87 -299 227 -601
370 -845 402 -72 10 -221 8 -275 -3 -171 -34 -320 -96 -383 -159 -74 -74 -244
-320 -476 -687 -60 -93 -115 -181 -124 -195 -9 -14 -21 -33 -27 -42 -5 -10
-47 -77 -91 -150 -149 -243 -337 -553 -348 -573 -6 -11 -38 -64 -70 -117 -65
-109 -72 -131 -75 -240 -3 -106 35 -252 124 -473 60 -150 79 -260 78 -436 -3
-483 -336 -917 -806 -1053 -114 -33 -169 -40 -312 -40 -140 0 -200 7 -310 39
-475 138 -809 580 -809 1070 0 362 165 689 459 910 152 114 370 196 557 210
167 12 211 23 329 78 100 48 226 154 308 261 44 57 316 486 479 756 134 222
269 487 310 611 71 214 65 273 -51 494 -60 114 -94 144 -213 184 -57 20 -94
25 -210 27 -78 2 -143 2 -145 0z"/>
<path d="M8740 9342 c-30 -9 -56 -19 -58 -24 -2 -4 -10 -8 -17 -8 -29 0 -125
-102 -157 -167 -26 -54 -32 -79 -34 -144 -6 -158 72 -287 215 -356 49 -24 68
-27 156 -27 90 -1 106 2 160 28 253 124 287 456 65 640 -25 20 -97 54 -133 62
-51 12 -146 10 -197 -4z"/>
<path d="M3613 9246 c-162 -53 -266 -198 -264 -367 3 -194 155 -354 347 -364
353 -18 532 395 280 647 -17 17 -60 44 -96 61 -52 25 -79 31 -145 34 -49 2
-96 -2 -122 -11z"/>
<path d="M6055 9235 c-259 -56 -467 -239 -549 -485 -39 -119 -48 -202 -34
-320 44 -375 350 -648 728 -648 212 0 375 69 525 222 323 328 265 868 -120
1123 -118 77 -237 114 -385 118 -59 2 -131 -3 -165 -10z"/>
<path d="M10856 7823 c-257 -58 -433 -310 -395 -566 12 -82 16 -93 51 -164 54
-111 167 -211 281 -250 62 -22 75 -24 157 -27 228 -10 429 129 505 350 31 93
29 239 -5 329 -94 246 -345 385 -594 328z"/>
<path d="M2343 7706 c-134 -33 -265 -131 -330 -246 -115 -203 -79 -459 88
-620 205 -198 521 -194 718 8 69 71 99 121 136 227 14 40 14 191 1 241 -8 27
-15 56 -17 64 -8 29 -55 112 -89 154 -60 76 -185 153 -276 171 -64 13 -181 13
-231 1z"/>
<path d="M8365 7638 c-67 -12 -180 -70 -230 -116 -124 -115 -177 -241 -171
-407 6 -189 111 -352 279 -435 149 -73 303 -73 452 0 269 131 368 459 218 720
-15 25 -52 70 -82 100 -124 121 -292 171 -466 138z"/>
<path d="M4905 6489 c-158 -20 -297 -90 -415 -209 -98 -98 -140 -164 -183
-287 -27 -77 -31 -104 -34 -213 -3 -169 27 -283 112 -416 196 -306 595 -424
923 -272 172 80 308 223 379 398 74 185 63 423 -28 604 -84 164 -243 303 -414
361 -49 17 -59 19 -122 31 -47 9 -162 11 -218 3z"/>
<path d="M9964 6009 c-151 -18 -286 -140 -319 -289 -21 -94 5 -223 61 -299
190 -258 588 -182 669 129 30 117 -6 251 -92 341 -88 92 -196 132 -319 118z"/>
<path d="M2637 5520 c-119 -30 -224 -129 -261 -246 -51 -158 6 -332 138 -424
172 -118 410 -75 526 96 126 187 57 445 -146 545 -53 26 -80 33 -142 35 -42 2
-94 -1 -115 -6z"/>
</g>
</svg>
