<?xml version="1.0" encoding="utf-8"?>
<!-- Generator: Adobe Illustrator 15.0.2, SVG Export Plug-In . SVG Version: 6.00 Build 0)  -->
<!DOCTYPE svg PUBLIC "-//W3C//DTD SVG 1.1//EN" "http://www.w3.org/Graphics/SVG/1.1/DTD/svg11.dtd">
<svg version="1.1" id="Layer_1" xmlns="http://www.w3.org/2000/svg" xmlns:xlink="http://www.w3.org/1999/xlink" x="0px" y="0px"
	 width="100px" height="100px" viewBox="0 0 100 100" enable-background="new 0 0 100 100" xml:space="preserve">
<g>
	<polygon fill="#808285" points="101.336,49.987 91.214,39.866 91.188,60.135 	"/>
	<polyline fill="none" stroke="#808285" stroke-linecap="round" stroke-linejoin="round" stroke-miterlimit="10" points="
		101.336,49.987 91.214,39.866 91.188,60.135 101.336,49.987 	"/>
	<rect x="78.717" y="46.124" fill="#808285" width="13.479" height="7.752"/>
	
		<rect x="78.717" y="46.124" fill="none" stroke="#808285" stroke-linecap="round" stroke-linejoin="round" stroke-miterlimit="10" width="13.479" height="7.752"/>
</g>
<path fill="none" stroke="#808285" stroke-width="10" stroke-linecap="round" stroke-linejoin="round" stroke-miterlimit="10" stroke-dasharray="1.948,3.896" d="
	M6.667,93.435C9.75,92.864,50,99.13,50,50.102C50,1.074,93.334,6.768,93.334,6.768"/>
<g>
	<polygon fill="#808285" points="25.046,49.987 14.924,39.866 14.899,60.135 	"/>
	<polyline fill="none" stroke="#808285" stroke-linecap="round" stroke-linejoin="round" stroke-miterlimit="10" points="
		25.046,49.987 14.924,39.866 14.899,60.135 25.046,49.987 	"/>
	<rect x="2.427" y="46.124" fill="#808285" width="13.48" height="7.752"/>
	
		<rect x="2.427" y="46.124" fill="none" stroke="#808285" stroke-linecap="round" stroke-linejoin="round" stroke-miterlimit="10" width="13.48" height="7.752"/>
</g>
<rect fill="none" width="100" height="100"/>
</svg>
