<?xml version="1.0" encoding="utf-8"?>
<!-- Generator: Adobe Illustrator 15.0.2, SVG Export Plug-In . SVG Version: 6.00 Build 0)  -->
<!DOCTYPE svg PUBLIC "-//W3C//DTD SVG 1.1//EN" "http://www.w3.org/Graphics/SVG/1.1/DTD/svg11.dtd">
<svg version="1.1" id="Layer_1" xmlns="http://www.w3.org/2000/svg" xmlns:xlink="http://www.w3.org/1999/xlink" x="0px" y="0px"
	 width="100px" height="100px" viewBox="0 0 100 100" enable-background="new 0 0 100 100" xml:space="preserve">
<g>
	<polygon fill="#808285" stroke="#808285" stroke-miterlimit="10" points="12.921,52.58 12.921,25.309 2.5,25.309 2.5,99.168 
		12.921,99.168 12.921,61.923 62.311,75.833 62.311,99.168 72.732,99.168 72.732,78.768 78.994,80.534 81.435,71.877 	"/>
	<ellipse fill="#808285" stroke="#808285" stroke-miterlimit="10" cx="29.008" cy="39.583" rx="10.193" ry="10.193"/>
	<path fill="#808285" stroke="#808285" stroke-miterlimit="10" d="M48.264,51.137c-2.498,0-4.531-2.031-4.531-4.53v-6.071
		c-1.312,0.532-2.383,1.41-2.978,2.656c-1.72,3.596-0.784,9.513,5.261,13.076c8.338,4.848,14.035,6.689,24.132,7.558
		c1.726,0.016,3.132-0.099,4.296-0.335c1.429,0.809,3.064,1.759,4.669,2.761c1.93,1.198,3.813,2.476,5.114,3.527
		c0.599,0.475,1.067,0.908,1.324,1.181c0.071,0.431,0.164,1.145,0.231,1.974c0.304,3.484,0.393,9.19,0.39,13.788
		c0,2.186-0.019,4.144-0.034,5.553c-0.018,1.401-0.037,2.244-0.037,2.246c-0.064,3.127,2.419,5.715,5.545,5.781
		c0.041,0,0.081,0,0.121,0c3.074,0,5.597-2.459,5.662-5.546l0,0c0-0.026,0.071-3.538,0.071-8.034c0-3.377-0.04-7.3-0.188-10.775
		c-0.074-1.743-0.173-3.369-0.321-4.816c-0.075-0.727-0.161-1.407-0.272-2.066c-0.114-0.665-0.238-1.289-0.485-2.043
		c-0.662-1.859-1.551-2.843-2.418-3.808c-1.541-1.619-3.33-2.973-5.288-4.337c-4.485-3.098-9.838-6.013-12.104-7.213
		c-1.188-0.775-2.412-1.392-3.235-1.883c-2.201-1.321-14.233-5.835-20.392-8.372v5.199C52.795,49.105,50.764,51.137,48.264,51.137z"
		/>
	<path fill="#808285" stroke="#808285" stroke-miterlimit="10" d="M43.733,25.59c0.297,0.114,0.6,0.223,0.908,0.315v14.324v6.377
		c0,2,1.622,3.623,3.624,3.623s3.625-1.623,3.625-3.623v-5.598V25.905c0.306-0.093,0.607-0.201,0.904-0.315
		c4.643-1.815,7.93-6.327,7.93-11.609c0-6.882-5.578-12.46-12.459-12.46c-6.882,0-12.461,5.578-12.461,12.46
		C35.804,19.263,39.093,23.774,43.733,25.59z M48.265,10.386c1.985,0,3.595,1.61,3.595,3.595c0,0.118-0.007,0.232-0.017,0.347
		c-0.176,1.821-1.711,3.247-3.579,3.247c-1.869,0-3.405-1.426-3.578-3.25c-0.011-0.112-0.017-0.226-0.017-0.344
		C44.67,11.996,46.28,10.386,48.265,10.386z"/>
</g>
</svg>
