<?xml version="1.0" encoding="utf-8"?>
<!-- Generator: Adobe Illustrator 15.0.2, SVG Export Plug-In . SVG Version: 6.00 Build 0)  -->
<!DOCTYPE svg PUBLIC "-//W3C//DTD SVG 1.1//EN" "http://www.w3.org/Graphics/SVG/1.1/DTD/svg11.dtd">
<svg version="1.1" id="Layer_1" xmlns="http://www.w3.org/2000/svg" xmlns:xlink="http://www.w3.org/1999/xlink" x="0px" y="0px"
	 width="100px" height="100px" viewBox="0 0 100 100" enable-background="new 0 0 100 100" xml:space="preserve">
<g>
	<defs>
		<rect id="SVGID_1_" width="100" height="100"/>
	</defs>
	<clipPath id="SVGID_2_">
		<use xlink:href="#SVGID_1_"  overflow="visible"/>
	</clipPath>
	<path clip-path="url(#SVGID_2_)" fill="#808285" d="M87.444,26.376c-4.777,0-8.649-3.872-8.649-8.649
		c0-4.777,3.872-8.649,8.649-8.649c4.776,0,8.648,3.872,8.648,8.649C96.093,22.504,92.221,26.376,87.444,26.376"/>
	<path clip-path="url(#SVGID_2_)" fill="#808285" d="M50,26.376c-4.777,0-8.649-3.872-8.649-8.649c0-4.777,3.872-8.649,8.649-8.649
		c4.777,0,8.649,3.872,8.649,8.649C58.649,22.504,54.777,26.376,50,26.376"/>
	<path clip-path="url(#SVGID_2_)" fill="#808285" d="M12.556,26.376c-4.777,0-8.649-3.872-8.649-8.649
		c0-4.777,3.872-8.649,8.649-8.649c4.777,0,8.649,3.872,8.649,8.649C21.205,22.504,17.333,26.376,12.556,26.376"/>
	<path clip-path="url(#SVGID_2_)" fill="#808285" d="M87.444,70.512c-4.777,0-8.649-3.872-8.649-8.649s3.872-8.649,8.649-8.649
		c4.776,0,8.648,3.872,8.648,8.649S92.221,70.512,87.444,70.512"/>
	<path clip-path="url(#SVGID_2_)" fill="#808285" d="M50,70.512c-4.777,0-8.649-3.872-8.649-8.649s3.872-8.649,8.649-8.649
		c4.777,0,8.649,3.872,8.649,8.649S54.777,70.512,50,70.512"/>
	<path clip-path="url(#SVGID_2_)" fill="#808285" d="M12.556,70.512c-4.777,0-8.649-3.872-8.649-8.649s3.872-8.649,8.649-8.649
		c4.777,0,8.649,3.872,8.649,8.649S17.333,70.512,12.556,70.512"/>
	<polygon clip-path="url(#SVGID_2_)" fill="#808285" points="75.637,61.854 69.268,55.485 69.253,68.238 	"/>
	
		<polyline clip-path="url(#SVGID_2_)" fill="none" stroke="#808285" stroke-linecap="round" stroke-linejoin="round" stroke-miterlimit="10" points="
		75.637,61.854 69.268,55.485 69.253,68.238 75.637,61.854 	"/>
	<rect x="61.405" y="59.423" clip-path="url(#SVGID_2_)" fill="#808285" width="8.481" height="4.878"/>
	
		<rect x="61.405" y="59.423" clip-path="url(#SVGID_2_)" fill="none" stroke="#808285" stroke-linecap="round" stroke-linejoin="round" stroke-miterlimit="10" width="8.481" height="4.878"/>
	<polygon clip-path="url(#SVGID_2_)" fill="#808285" points="38.454,61.854 32.085,55.485 32.07,68.238 	"/>
	
		<polyline clip-path="url(#SVGID_2_)" fill="none" stroke="#808285" stroke-linecap="round" stroke-linejoin="round" stroke-miterlimit="10" points="
		38.454,61.854 32.085,55.485 32.07,68.238 38.454,61.854 	"/>
	<rect x="24.222" y="59.423" clip-path="url(#SVGID_2_)" fill="#808285" width="8.482" height="4.878"/>
	
		<rect x="24.222" y="59.423" clip-path="url(#SVGID_2_)" fill="none" stroke="#808285" stroke-linecap="round" stroke-linejoin="round" stroke-miterlimit="10" width="8.482" height="4.878"/>
	<polygon clip-path="url(#SVGID_2_)" fill="#808285" points="12.542,76.69 6.174,83.06 18.927,83.074 	"/>
	
		<polyline clip-path="url(#SVGID_2_)" fill="none" stroke="#808285" stroke-linecap="round" stroke-linejoin="round" stroke-miterlimit="10" points="
		12.542,76.69 6.174,83.06 18.927,83.074 12.542,76.69 	"/>
	<rect x="10.111" y="82.44" clip-path="url(#SVGID_2_)" fill="#808285" width="4.878" height="8.481"/>
	
		<rect x="10.111" y="82.44" clip-path="url(#SVGID_2_)" fill="none" stroke="#808285" stroke-linecap="round" stroke-linejoin="round" stroke-miterlimit="10" width="4.878" height="8.481"/>
	<polygon clip-path="url(#SVGID_2_)" fill="#808285" points="49.987,76.69 43.618,83.06 56.37,83.074 	"/>
	
		<polyline clip-path="url(#SVGID_2_)" fill="none" stroke="#808285" stroke-linecap="round" stroke-linejoin="round" stroke-miterlimit="10" points="
		49.987,76.69 43.618,83.06 56.37,83.074 49.987,76.69 	"/>
	<rect x="47.555" y="82.44" clip-path="url(#SVGID_2_)" fill="#808285" width="4.877" height="8.481"/>
	
		<rect x="47.555" y="82.44" clip-path="url(#SVGID_2_)" fill="none" stroke="#808285" stroke-linecap="round" stroke-linejoin="round" stroke-miterlimit="10" width="4.877" height="8.481"/>
	<polygon clip-path="url(#SVGID_2_)" fill="#808285" points="87.431,76.69 81.062,83.06 93.814,83.074 	"/>
	
		<polyline clip-path="url(#SVGID_2_)" fill="none" stroke="#808285" stroke-linecap="round" stroke-linejoin="round" stroke-miterlimit="10" points="
		87.431,76.69 81.062,83.06 93.814,83.074 87.431,76.69 	"/>
	<rect x="84.999" y="82.44" clip-path="url(#SVGID_2_)" fill="#808285" width="4.878" height="8.481"/>
	
		<rect x="84.999" y="82.44" clip-path="url(#SVGID_2_)" fill="none" stroke="#808285" stroke-linecap="round" stroke-linejoin="round" stroke-miterlimit="10" width="4.878" height="8.481"/>
	<polygon clip-path="url(#SVGID_2_)" fill="#808285" points="12.542,33.815 6.174,40.184 18.927,40.199 	"/>
	
		<polyline clip-path="url(#SVGID_2_)" fill="none" stroke="#808285" stroke-linecap="round" stroke-linejoin="round" stroke-miterlimit="10" points="
		12.542,33.815 6.174,40.184 18.927,40.199 12.542,33.815 	"/>
	<rect x="10.111" y="39.565" clip-path="url(#SVGID_2_)" fill="#808285" width="4.878" height="8.482"/>
	
		<rect x="10.111" y="39.565" clip-path="url(#SVGID_2_)" fill="none" stroke="#808285" stroke-linecap="round" stroke-linejoin="round" stroke-miterlimit="10" width="4.878" height="8.482"/>
	<polygon clip-path="url(#SVGID_2_)" fill="#808285" points="49.987,33.815 43.618,40.184 56.37,40.199 	"/>
	
		<polyline clip-path="url(#SVGID_2_)" fill="none" stroke="#808285" stroke-linecap="round" stroke-linejoin="round" stroke-miterlimit="10" points="
		49.987,33.815 43.618,40.184 56.37,40.199 49.987,33.815 	"/>
	<rect x="47.555" y="39.565" clip-path="url(#SVGID_2_)" fill="#808285" width="4.877" height="8.482"/>
	
		<rect x="47.555" y="39.565" clip-path="url(#SVGID_2_)" fill="none" stroke="#808285" stroke-linecap="round" stroke-linejoin="round" stroke-miterlimit="10" width="4.877" height="8.482"/>
	<polygon clip-path="url(#SVGID_2_)" fill="#808285" points="87.431,33.815 81.062,40.184 93.814,40.199 	"/>
	
		<polyline clip-path="url(#SVGID_2_)" fill="none" stroke="#808285" stroke-linecap="round" stroke-linejoin="round" stroke-miterlimit="10" points="
		87.431,33.815 81.062,40.184 93.814,40.199 87.431,33.815 	"/>
	<rect x="84.999" y="39.565" clip-path="url(#SVGID_2_)" fill="#808285" width="4.878" height="8.482"/>
	
		<rect x="84.999" y="39.565" clip-path="url(#SVGID_2_)" fill="none" stroke="#808285" stroke-linecap="round" stroke-linejoin="round" stroke-miterlimit="10" width="4.878" height="8.482"/>
</g>
</svg>
