<?xml version="1.0" encoding="utf-8"?>
<!-- Generator: Adobe Illustrator 15.0.2, SVG Export Plug-In . SVG Version: 6.00 Build 0)  -->
<!DOCTYPE svg PUBLIC "-//W3C//DTD SVG 1.1//EN" "http://www.w3.org/Graphics/SVG/1.1/DTD/svg11.dtd">
<svg version="1.1" id="Layer_1" xmlns="http://www.w3.org/2000/svg" xmlns:xlink="http://www.w3.org/1999/xlink" x="0px" y="0px"
	 width="100px" height="100px" viewBox="0 0 100 100" enable-background="new 0 0 100 100" xml:space="preserve">
<path fill="none" stroke="#808285" stroke-width="5" stroke-linecap="round" stroke-linejoin="round" stroke-miterlimit="10" d="
	M29.252,19c0-5.937-4.813-10.75-10.75-10.75c-5.941,0-10.75,4.813-10.75,10.75c0,5.935,4.809,10.749,10.75,10.749h10.75V19z"/>
<path fill="none" stroke="#808285" stroke-width="5" stroke-linecap="round" stroke-linejoin="round" stroke-miterlimit="10" d="
	M18.499,72.75c-5.937,0-10.746,4.811-10.75,10.75c0.003,5.936,4.813,10.75,10.75,10.75c5.94,0,10.75-4.814,10.75-10.75V72.75H18.499
	z"/>
<path fill="none" stroke="#808285" stroke-width="5" stroke-linecap="round" stroke-linejoin="round" stroke-miterlimit="10" d="
	M72.25,83.5c0,5.936,4.811,10.75,10.75,10.75c5.936,0,10.749-4.814,10.749-10.75S88.936,72.75,83,72.75H72.25V83.5z"/>
<path fill="none" stroke="#808285" stroke-width="5" stroke-linecap="round" stroke-linejoin="round" stroke-miterlimit="10" d="
	M83,29.75c5.936,0.001,10.749-4.81,10.749-10.75c0-5.937-4.813-10.75-10.749-10.75c-5.938,0-10.75,4.813-10.75,10.75v10.75H83z"/>
<rect x="29.252" y="29.75" fill="none" stroke="#808285" stroke-width="5" stroke-linecap="round" stroke-linejoin="round" stroke-miterlimit="10" width="42.998" height="43"/>
</svg>
